<svg width="26" height="27" viewBox="0 0 26 27" fill="none" xmlns="http://www.w3.org/2000/svg">
<circle cx="13" cy="13" r="13" fill="#585858"/>
<path d="M18.3842 7.86897C17.399 7.39218 16.3323 7.04611 15.2211 6.84617C15.2114 6.84584 15.2017 6.84774 15.1927 6.85173C15.1838 6.85571 15.1758 6.86169 15.1693 6.86924C15.036 7.12302 14.8804 7.4537 14.7767 7.70748C13.5981 7.52291 12.3996 7.52291 11.221 7.70748C11.1173 7.44601 10.9618 7.12302 10.821 6.86924C10.8136 6.85386 10.7914 6.84617 10.7692 6.84617C9.65803 7.04611 8.59874 7.39218 7.60612 7.86897C7.59871 7.86897 7.5913 7.87666 7.5839 7.88436C5.56903 11.0143 5.01346 14.0597 5.28754 17.0743C5.28754 17.0896 5.29495 17.105 5.30976 17.1127C6.64313 18.1278 7.92465 18.743 9.19135 19.1506C9.21357 19.1583 9.23579 19.1506 9.2432 19.1353C9.53951 18.7123 9.80618 18.2663 10.0358 17.7971C10.0506 17.7664 10.0358 17.7356 10.0062 17.7279C9.58395 17.5587 9.18394 17.3588 8.79134 17.1281C8.76171 17.1127 8.76171 17.0666 8.78393 17.0435C8.86541 16.982 8.9469 16.9128 9.02838 16.8512C9.0432 16.8359 9.06542 16.8359 9.08023 16.8435C11.6285 18.0509 14.3767 18.0509 16.8953 16.8435C16.9101 16.8359 16.9323 16.8359 16.9471 16.8512C17.0286 16.9205 17.1101 16.982 17.1916 17.0512C17.2212 17.0743 17.2212 17.1204 17.1842 17.1358C16.799 17.3742 16.3915 17.5664 15.9693 17.7356C15.9397 17.7433 15.9323 17.7818 15.9397 17.8048C16.1767 18.2739 16.4434 18.72 16.7323 19.1429C16.7545 19.1506 16.7767 19.1583 16.799 19.1506C18.0731 18.743 19.3546 18.1278 20.688 17.1127C20.7028 17.105 20.7102 17.0896 20.7102 17.0743C21.0361 13.5906 20.1694 10.5683 18.4138 7.88436C18.4064 7.87666 18.399 7.86897 18.3842 7.86897ZM10.421 15.2363C9.65803 15.2363 9.02097 14.5057 9.02097 13.6059C9.02097 12.7062 9.64321 11.9756 10.421 11.9756C11.2062 11.9756 11.8285 12.7139 11.821 13.6059C11.821 14.5057 11.1988 15.2363 10.421 15.2363ZM15.5841 15.2363C14.8211 15.2363 14.1841 14.5057 14.1841 13.6059C14.1841 12.7062 14.8063 11.9756 15.5841 11.9756C16.3693 11.9756 16.9916 12.7139 16.9842 13.6059C16.9842 14.5057 16.3693 15.2363 15.5841 15.2363Z" fill="white"/>
<circle cx="21.5" cy="23.5" r="2.5" fill="#242424"/>
<path d="M21.5 25.6304C22.6766 25.6304 23.6304 24.6766 23.6304 23.5C23.6304 22.3234 22.6766 21.3696 21.5 21.3696C20.3234 21.3696 19.3696 22.3234 19.3696 23.5C19.3696 24.6766 20.3234 25.6304 21.5 25.6304Z" fill="#252525" stroke="#DEDEDE"/>
</svg>
